<svg xmlns="http://www.w3.org/2000/svg" fill="none" viewBox="0 0 10 10">
  <path fill="#000000" d="M8.74707 0.000976562C9.44137 0.0117599 9.98811 0.558671 9.99902 1.25293c0.00508 0.32952 -0.00912 0.7405 -0.083 1.13184 -0.07097 0.37581 -0.21172 0.81416 -0.51856 1.12109l-1.1416 1.1416 1.36523 3.45899c0.07314 0.18526 0.0295 0.39625 -0.11132 0.5371l-0.73633 0.73633c-0.19526 0.19526 -0.51177 0.19526 -0.70703 0L5.44824 6.76172 4.36719 7.83301c-0.00343 0.69447 -0.1105 1.21378 -0.23242 1.5791 -0.1073 0.32137 -0.36968 0.53179 -0.67676 0.57812 -0.29272 0.04417 -0.58477 -0.06434 -0.79297 -0.27246L0.282227 7.33496c-0.2080071 -0.20817 -0.3165061 -0.50036 -0.27246138 -0.79297C0.0560598 6.23524 0.265972 5.97372 0.586914 5.86621c0.364619 -0.1219 0.882866 -0.22982 1.575196 -0.2334L3.23633 4.5498 0.620117 1.93359c-0.195167 -0.19527 -0.19523 -0.5118 0 -0.70703L1.35645 0.490234c0.14084 -0.140821 0.35184 -0.184451 0.5371 -0.111328L5.35254 1.74414 6.49414 0.602539c0.30685 -0.30676 0.74534 -0.446594 1.12109 -0.5175781 0.39137 -0.0739029 0.8023 -0.08910068 1.13184 -0.083984338" stroke-width="1"></path>
</svg>