<svg xmlns="http://www.w3.org/2000/svg" fill="none" viewBox="0 0 10 10" id="Beach--Streamline-Micro">
  <desc>
    Beach Streamline Icon: https://streamlinehq.com
  </desc>
  <path fill="#000000" fill-rule="evenodd" d="M4.729 2.588c-0.217 0.11 -0.403 0.275 -0.541 0.478a0.625 0.625 0 0 1 -1.034 -0.702 2.702 2.702 0 0 1 1.544 -1.095 1.161 1.161 0 0 0 -0.436 0.003 0.625 0.625 0 1 1 -0.241 -1.227 2.411 2.411 0 0 1 2.502 1.076 2.55 2.55 0 0 1 2.681 0.685 0.625 0.625 0 0 1 -0.917 0.849 1.3 1.3 0 0 0 -0.547 -0.351 2.393 2.393 0 0 1 0.392 1.875 0.625 0.625 0 1 1 -1.224 -0.256 1.14 1.14 0 0 0 -0.624 -1.263c-0.254 0.19 -0.475 0.49 -0.647 0.91a5.026 5.026 0 0 0 -0.328 1.42 4.59 4.59 0 0 1 1.88 0.88 0.5 0.5 0 0 1 -0.31 0.894H1.824a0.5 0.5 0 0 1 -0.309 -0.893 4.59 4.59 0 0 1 2.547 -0.972c0.06 -0.64 0.193 -1.26 0.42 -1.806a4.19 4.19 0 0 1 0.247 -0.505ZM2.73 8.115a0.5 0.5 0 1 0 -1 0A0.885 0.885 0 0 1 0.846 9H0.5a0.5 0.5 0 0 0 0 1h9a0.5 0.5 0 0 0 0 -1h-0.346a0.885 0.885 0 0 1 -0.885 -0.885 0.5 0.5 0 1 0 -1 0 0.885 0.885 0 1 1 -1.769 0 0.5 0.5 0 1 0 -1 0 0.885 0.885 0 1 1 -1.77 0Z" clip-rule="evenodd" stroke-width="1"></path>
</svg>