<svg xmlns="http://www.w3.org/2000/svg" fill="none" viewBox="0 0 10 10" id="Office-Building--Streamline-Micro">
  <desc>
    Office Building Streamline Icon: https://streamlinehq.com
  </desc>
  <path fill="#000000" fill-rule="evenodd" d="M3.991 0h2.017l0 3.5H3.991l0 -3.5Zm-0.51 4.5 0.01 0 0.01 0h2.997l0.01 0 0.01 0h2.755V9H9.5a0.5 0.5 0 0 1 0 1h-9a0.5 0.5 0 0 1 0 -1h0.227V4.5h2.754ZM6.258 9H3.741v-0.742a1.258 1.258 0 1 1 2.517 0V9ZM2.991 3.5l0 -3.5H1.936C1.268 0 0.727 0.54 0.727 1.208V3.5h2.264Zm6.282 0V1.208C9.273 0.541 8.733 0 8.065 0H7.008l0 3.5h2.265Z" clip-rule="evenodd" stroke-width="1"></path>
</svg>