<svg xmlns="http://www.w3.org/2000/svg" fill="none" viewBox="0 0 10 10" id="Cake--Streamline-Micro">
  <desc>
    Cake Streamline Icon: https://streamlinehq.com
  </desc>
  <path fill="#000000" fill-rule="evenodd" d="M2.856 0.625a0.625 0.625 0 1 0 -1.25 0v1.254a0.625 0.625 0 0 0 1.25 0V0.625Zm2.769 0a0.625 0.625 0 1 0 -1.25 0v1.254a0.625 0.625 0 1 0 1.25 0V0.625ZM7.769 0c0.345 0 0.625 0.28 0.625 0.625v1.254a0.625 0.625 0 0 1 -1.25 0V0.625c0 -0.345 0.28 -0.625 0.625 -0.625ZM1.192 3.462C0.534 3.462 0 3.995 0 4.654v1.601h0.554a0.982 0.982 0 0 0 0.982 -0.982 0.5 0.5 0 0 1 1 0 0.982 0.982 0 1 0 1.964 0 0.5 0.5 0 0 1 1 0 0.982 0.982 0 0 0 1.964 0 0.5 0.5 0 0 1 1 0 0.982 0.982 0 0 0 0.982 0.982H10V4.654c0 -0.659 -0.534 -1.192 -1.192 -1.192H1.192ZM0 8.808V7.255h0.554a1.982 1.982 0 0 0 1.482 -0.666 1.987 1.987 0 0 0 1.482 0.666A1.982 1.982 0 0 0 5 6.59a1.987 1.987 0 0 0 1.482 0.666 1.982 1.982 0 0 0 1.482 -0.666 1.982 1.982 0 0 0 1.482 0.666H10v1.553C10 9.466 9.466 10 8.808 10H1.192A1.192 1.192 0 0 1 0 8.808Z" clip-rule="evenodd" stroke-width="1"></path>
</svg>