<svg xmlns="http://www.w3.org/2000/svg" fill="none" viewBox="0 0 10 10" id="Calendar-Date--Streamline-Micro">
  <desc>
    Calendar Date Streamline Icon: https://streamlinehq.com
  </desc>
  <path fill="#000000" fill-rule="evenodd" d="M3.125 0.625a0.625 0.625 0 1 0 -1.25 0v0.625H1.5A1.5 1.5 0 0 0 0 2.75v1h10v-1a1.5 1.5 0 0 0 -1.5 -1.5h-0.375V0.625a0.625 0.625 0 1 0 -1.25 0v0.625h-3.75V0.625ZM10 4.75H0V8.5A1.5 1.5 0 0 0 1.5 10h7A1.5 1.5 0 0 0 10 8.5V4.75Z" clip-rule="evenodd" stroke-width="1"></path>
</svg>