<svg xmlns="http://www.w3.org/2000/svg" fill="none" viewBox="0 0 10 10" id="Camping-Tent--Streamline-Micro">
  <desc>
    Camping Tent Streamline Icon: https://streamlinehq.com
  </desc>
  <path fill="#000000" fill-rule="evenodd" d="M3.205 0.125a0.75 0.75 0 0 1 1.04 0.21L5 1.477l0.755 -1.14a0.75 0.75 0 0 1 1.251 0.828L5.9 2.834l3.975 6.002A0.75 0.75 0 0 1 9.25 10h-3.5V8.25a0.75 0.75 0 0 0 -1.5 0V10H0.75a0.75 0.75 0 0 1 -0.625 -1.164L4.1 2.834l-1.106 -1.67a0.75 0.75 0 0 1 0.211 -1.04Z" clip-rule="evenodd" stroke-width="1"></path>
</svg>