<svg xmlns="http://www.w3.org/2000/svg" fill="none" viewBox="0 0 10 10" id="Tea-Cup--Streamline-Micro">
  <desc>
    Tea Cup Streamline Icon: https://streamlinehq.com
  </desc>
  <path fill="#000000" fill-rule="evenodd" d="M4 0a0.5 0.5 0 0 1 0.5 0.5v2a0.5 0.5 0 0 1 -1 0v-2A0.5 0.5 0 0 1 4 0ZM2 1a0.5 0.5 0 0 1 0.5 0.5v1a0.5 0.5 0 0 1 -1 0v-1A0.5 0.5 0 0 1 2 1ZM0.303 4.303C0.497 4.109 0.76 4 1.034 4H8a2 2 0 1 1 0 4h-0.078a2.636 2.636 0 0 1 -2.558 2H2.636A2.636 2.636 0 0 1 0 7.364v-2.33c0 -0.274 0.109 -0.537 0.303 -0.731ZM8 7a1 1 0 1 0 0 -2l0 0.034V7ZM6 1a0.5 0.5 0 0 1 0.5 0.5v1a0.5 0.5 0 0 1 -1 0v-1A0.5 0.5 0 0 1 6 1Z" clip-rule="evenodd" stroke-width="1"></path>
</svg>