<svg xmlns="http://www.w3.org/2000/svg" fill="none" viewBox="0 0 10 10" id="Fork-Spoon--Streamline-Micro">
  <desc>
    Fork Spoon Streamline Icon: https://streamlinehq.com
  </desc>
  <path fill="#000000" fill-rule="evenodd" d="M1 0.5a0.5 0.5 0 0 0 -1 0v2a2.25 2.25 0 0 0 1.5 2.121V9.25a0.75 0.75 0 0 0 1.5 0V4.621A2.25 2.25 0 0 0 4.5 2.5v-2a0.5 0.5 0 0 0 -1 0v2a1.25 1.25 0 0 1 -0.75 1.146V0.5a0.5 0.5 0 0 0 -1 0v3.146A1.25 1.25 0 0 1 1 2.5v-2ZM7.75 0.004c-0.935 0 -1.498 0.748 -1.8 1.418A5.445 5.445 0 0 0 5.5 3.5c0 0.69 0.353 1.204 0.8 1.53 0.215 0.156 0.457 0.273 0.704 0.351V9.25a0.75 0.75 0 1 0 1.5 0V5.39a2.33 2.33 0 0 0 0.737 -0.365A1.86 1.86 0 0 0 10 3.5c0 -0.563 -0.137 -1.383 -0.45 -2.078C9.248 0.752 8.685 0.004 7.75 0.004Z" clip-rule="evenodd" stroke-width="1"></path>
</svg>