<svg xmlns="http://www.w3.org/2000/svg" fill="none" viewBox="0 0 10 10" id="Film-Slate--Streamline-Micro">
  <desc>
    Film Slate Streamline Icon: https://streamlinehq.com
  </desc>
  <path fill="#000000" fill-rule="evenodd" d="M8.038 0.03a1 1 0 0 1 1.211 0.729l0.001 0.003 0.365 1.503a0.5 0.5 0 0 1 -0.366 0.603L1.675 4.75H9.5a0.5 0.5 0 0 1 0.5 0.5V8.5A1.5 1.5 0 0 1 8.5 10H2A1.5 1.5 0 0 1 0.5 8.5V5.25c0 -0.145 0.062 -0.276 0.161 -0.368a0.5 0.5 0 0 1 -0.267 -0.332L0.029 3.048a1 1 0 0 1 0.73 -1.21L8.038 0.03ZM4.562 8a0.5 0.5 0 0 0 0 -1H3.188a0.5 0.5 0 0 0 0 1h1.376Z" clip-rule="evenodd" stroke-width="1"></path>
</svg>