<svg xmlns="http://www.w3.org/2000/svg" fill="none" viewBox="0 0 10 10" id="Nintendo-Xbox-Controller--Streamline-Micro">
  <desc>
    Nintendo Xbox Controller Streamline Icon: https://streamlinehq.com
  </desc>
  <path fill="#000000" fill-rule="evenodd" d="M2.728 0.875A2.514 2.514 0 0 0 0.225 3.086l-0.22 4.467a1.505 1.505 0 0 0 1.508 1.572h0.416a1.51 1.51 0 0 0 1.463 -1.127l0.295 -0.873h2.628l0.295 0.873a1.509 1.509 0 0 0 1.463 1.127h0.416c0.857 0 1.55 -0.71 1.509 -1.572l-0.221 -4.467A2.514 2.514 0 0 0 7.274 0.875H2.728Zm0.536 4.5a0.5 0.5 0 0 1 -0.5 -0.5V4.5H2.38a0.5 0.5 0 1 1 0 -1h0.384v-0.375a0.5 0.5 0 0 1 1 0V3.5h0.385a0.5 0.5 0 0 1 0 1h-0.385v0.375a0.5 0.5 0 0 1 -0.5 0.5ZM6.411 4c0 -0.42 0.342 -0.75 0.753 -0.75 0.41 0 0.752 0.331 0.752 0.75s-0.342 0.75 -0.752 0.75A0.751 0.751 0 0 1 6.41 4Z" clip-rule="evenodd" stroke-width="1"></path>
</svg>