<svg xmlns="http://www.w3.org/2000/svg" fill="none" viewBox="0 0 10 10" id="Gift-Present-2--Streamline-Micro">
  <desc>
    Gift Present 2 Streamline Icon: https://streamlinehq.com
  </desc>
  <path fill="#000000" fill-rule="evenodd" d="M8.782 2.085a1.5 1.5 0 0 1 0.968 1.403v2.005l-4.257 0V2.001h-1v3.492H0.25V3.488a1.5 1.5 0 0 1 0.956 -1.399A1.98 1.98 0 0 1 1.45 0.94c0.286 -0.516 0.827 -0.938 1.515 -0.938 0.695 0 1.324 0.372 1.762 0.826 0.095 0.098 0.185 0.204 0.268 0.316A3.12 3.12 0 0 1 5.26 0.827C5.7 0.373 6.33 0 7.023 0c0.689 0 1.23 0.422 1.516 0.939 0.186 0.335 0.283 0.74 0.243 1.145Zm-6.58 -0.097h2.145a2.013 2.013 0 0 0 -0.34 -0.466C3.69 1.193 3.304 1 2.964 1c-0.25 0 -0.49 0.153 -0.641 0.424a0.967 0.967 0 0 0 -0.122 0.563Zm3.44 0c0.08 -0.155 0.193 -0.316 0.338 -0.466C6.298 1.193 6.684 1 7.023 1c0.25 0 0.491 0.153 0.642 0.424 0.098 0.178 0.14 0.376 0.121 0.563H5.641ZM0.25 8.499V6.493h4.243V10H1.75a1.5 1.5 0 0 1 -1.5 -1.5ZM5.493 10V6.493H9.75V8.5a1.5 1.5 0 0 1 -1.5 1.5H5.493Z" clip-rule="evenodd" stroke-width="1"></path>
</svg>