<svg xmlns="http://www.w3.org/2000/svg" fill="none" viewBox="0 0 10 10" id="Sign-Cross-Circle--Streamline-Micro">
  <desc>
    Sign Cross Circle Streamline Icon: https://streamlinehq.com
  </desc>
  <path fill="#000000" fill-rule="evenodd" d="M5 0a5 5 0 1 0 0 10A5 5 0 0 0 5 0ZM3.804 2.5a0.25 0.25 0 0 1 0.25 -0.25h1.892a0.25 0.25 0 0 1 0.25 0.25v1.303H7.5a0.25 0.25 0 0 1 0.25 0.25v1.893a0.25 0.25 0 0 1 -0.25 0.25H6.196V7.5a0.25 0.25 0 0 1 -0.25 0.25H4.054a0.25 0.25 0 0 1 -0.25 -0.25l0 -1.304 -1.304 0a0.25 0.25 0 0 1 -0.25 -0.25V4.053a0.25 0.25 0 0 1 0.25 -0.25h1.304V2.5Z" clip-rule="evenodd" stroke-width="1"></path>
</svg>