<svg xmlns="http://www.w3.org/2000/svg" fill="none" viewBox="0 0 10 10" id="Mountain--Streamline-Micro">
  <desc>
    Mountain Streamline Icon: https://streamlinehq.com
  </desc>
  <path fill="#000000" fill-rule="evenodd" d="M0 1.7a1.7 1.7 0 1 1 3.4 0 1.7 1.7 0 0 1 -3.4 0Zm5.778 0.692a1.402 1.402 0 0 1 1.534 0.307 0.75 0.75 0 0 1 0.065 0.075l2.47 3.26a0.75 0.75 0 0 1 0.153 0.452V9.25a0.75 0.75 0 0 1 -0.75 0.75H0.776a0.75 0.75 0 0 1 -0.573 -1.233l5.078 -6.023a1.402 1.402 0 0 1 0.497 -0.352ZM6.31 3.85 4.58 5.9l0.966 0.727a1.155 1.155 0 0 0 1.329 0l0.981 -0.74L6.31 3.85Z" clip-rule="evenodd" stroke-width="1"></path>
</svg>