<svg xmlns="http://www.w3.org/2000/svg" fill="none" viewBox="0 0 10 10" id="Party-Popper--Streamline-Micro">
  <desc>
    Party Popper Streamline Icon: https://streamlinehq.com
  </desc>
  <path fill="#000000" fill-rule="evenodd" d="M2.134 0.367A1.25 1.25 0 1 0 0.366 2.134 1.25 1.25 0 0 0 2.134 0.367ZM4.598 3.34a0.625 0.625 0 0 0 0.682 -1.019 0.7 0.7 0 0 1 -0.172 -0.536 0.708 0.708 0 0 1 0.27 -0.522 0.626 0.626 0 0 0 -0.752 -1 1.957 1.957 0 0 0 -0.765 1.434 1.959 1.959 0 0 0 0.534 1.508 0.624 0.624 0 0 0 0.203 0.135ZM1.864 5.504a0.623 0.623 0 0 0 0.978 -0.286 0.625 0.625 0 0 0 -0.203 -0.695 2.37 2.37 0 0 0 -2.19 -0.056 0.617 0.617 0 0 0 -0.24 0.836 0.631 0.631 0 0 0 0.843 0.258c0.26 -0.09 0.54 -0.11 0.812 -0.057ZM3.767 7.88l5.057 2.06a0.862 0.862 0 0 0 1.117 -1.117l-2.069 -5.05a0.896 0.896 0 0 0 -1.462 -0.346L3.423 6.415a0.896 0.896 0 0 0 0.344 1.466Z" clip-rule="evenodd" stroke-width="1"></path>
</svg>