<svg xmlns="http://www.w3.org/2000/svg" fill="none" viewBox="0 0 10 10" id="Peace-Symbol--Streamline-Micro">
  <desc>
    Peace Symbol Streamline Icon: https://streamlinehq.com
  </desc>
  <path fill="#000000" d="M5 0a5 5 0 1 0 0 10A5 5 0 0 0 5 0Zm3.5 5c0 0.476 -0.097 0.948 -0.286 1.385L5.625 3.8V1.556A3.506 3.506 0 0 1 8.5 5ZM4.375 1.556V3.8L1.786 6.385a3.5 3.5 0 0 1 2.589 -4.829ZM2.5 7.443l1.875 -1.879v2.88A3.5 3.5 0 0 1 2.5 7.443Zm3.129 1V5.564L7.5 7.443a3.5 3.5 0 0 1 -1.875 1.001l0.004 -0.001Z" stroke-width="1"></path>
</svg>