<svg xmlns="http://www.w3.org/2000/svg" fill="none" viewBox="0 0 10 10" id="User-Multiple-Circle--Streamline-Micro">
  <desc>
    User Multiple Circle Streamline Icon: https://streamlinehq.com
  </desc>
  <path fill="#000000" fill-rule="evenodd" d="M8.075 7.12a2.26 2.26 0 0 0 -1.64 -0.975c0.455 0.512 0.742 1.15 0.827 1.826 0.314 -0.239 0.589 -0.527 0.813 -0.852Zm-3.94 1.513A3.737 3.737 0 0 1 1.981 7.2a2.26 2.26 0 0 1 4.18 1.194v0.156a3.733 3.733 0 0 1 -2.028 0.083ZM5 0.016a4.984 4.984 0 1 0 0 9.968A4.984 4.984 0 0 0 5 0.016Zm0.4 3.683a1.409 1.409 0 1 1 -2.817 0 1.409 1.409 0 0 1 2.817 0Zm0.9 1.409c-0.065 0 -0.128 -0.004 -0.19 -0.013 0.265 -0.4 0.419 -0.88 0.419 -1.396 0 -0.516 -0.154 -0.996 -0.419 -1.396a1.409 1.409 0 1 1 0.19 2.805Z" clip-rule="evenodd" stroke-width="1"></path>
</svg>