<svg xmlns="http://www.w3.org/2000/svg" fill="none" viewBox="0 0 10 10">
  <path fill="#000000" fill-rule="evenodd" d="M4.49459 0.5c0 -0.276142 0.22386 -0.5 0.5 -0.5h2.07686c0.27614 0 0.5 0.223858 0.5 0.5v1.68204c0 0.27614 -0.22386 0.5 -0.5 0.5H5.49459v0.68417h1.57686c0.27614 0 0.5 0.22386 0.5 0.5v5.63384c0 0.27614 -0.22386 0.49995 -0.5 0.49995H5.5V8.16456c0 -0.27614 -0.22386 -0.5 -0.5 -0.5s-0.5 0.22386 -0.5 0.5V10H2.91773c-0.27614 0 -0.5 -0.22381 -0.5 -0.49995V3.86621c0 -0.27614 0.22386 -0.5 0.5 -0.5h1.57686V2.23096c0 -0.0082 0.0002 -0.01636 0.00059 -0.02446 -0.00039 -0.00811 -0.00059 -0.01626 -0.00059 -0.02446zm4.07686 4.88721v4.61272H9.5c0.27614 0 0.5 -0.22386 0.5 -0.5V5.88721c0 -0.27615 -0.22386 -0.5 -0.5 -0.5zM1.41773 9.99993V5.38721H0.500137c-0.276142 0 -0.499999671 0.22385 -0.499999671 0.5v3.61272c0 0.27614 0.223857671 0.5 0.499999671 0.5z" clip-rule="evenodd" stroke-width="1"></path>
</svg>