<svg xmlns="http://www.w3.org/2000/svg" fill="none" viewBox="0 0 10 10" id="Favorite-Star-1--Streamline-Micro">
  <desc>
    Favorite Star 1 Streamline Icon: https://streamlinehq.com
  </desc>
  <path fill="#000000" d="M9.957 3.783a0.872 0.872 0 0 0 -0.71 -0.6l-2.39 -0.348L5.79 0.67a0.912 0.912 0 0 0 -1.578 0L3.143 2.837l-2.39 0.348a0.879 0.879 0 0 0 -0.487 1.5L2 6.372l-0.413 2.383a0.881 0.881 0 0 0 1.277 0.929L5 8.558l2.136 1.124a0.879 0.879 0 0 0 1.277 -0.927l-0.408 -2.383 1.73 -1.687a0.875 0.875 0 0 0 0.222 -0.902Z" stroke-width="1"></path>
</svg>