<svg xmlns="http://www.w3.org/2000/svg" fill="none" viewBox="0 0 10 10" id="Sun--Streamline-Micro">
  <desc>
    Sun Streamline Icon: https://streamlinehq.com
  </desc>
  <path fill="#000000" fill-rule="evenodd" d="M5 0c0.345 0 0.625 0.28 0.625 0.625v1.458a0.625 0.625 0 1 1 -1.25 0V0.625C4.375 0.28 4.655 0 5 0Zm0 3.25a1.75 1.75 0 1 0 0 3.5 1.75 1.75 0 0 0 0 -3.5Zm3.192 -0.558a0.625 0.625 0 1 0 -0.884 -0.884l-0.688 0.688a0.625 0.625 0 0 0 0.884 0.884l0.688 -0.688ZM3.379 6.62a0.625 0.625 0 0 1 0 0.884l-0.687 0.688a0.625 0.625 0 1 1 -0.884 -0.884l0.688 -0.688a0.625 0.625 0 0 1 0.883 0Zm3.929 1.572a0.625 0.625 0 1 0 0.884 -0.884l-0.688 -0.688a0.625 0.625 0 0 0 -0.884 0.884l0.688 0.688ZM3.379 3.38a0.625 0.625 0 0 1 -0.883 0l-0.688 -0.688a0.625 0.625 0 1 1 0.884 -0.884l0.687 0.688a0.625 0.625 0 0 1 0 0.884Zm2.246 4.537a0.625 0.625 0 1 0 -1.25 0v1.458a0.625 0.625 0 1 0 1.25 0V7.917ZM10 5c0 0.345 -0.28 0.625 -0.625 0.625H7.917a0.625 0.625 0 1 1 0 -1.25h1.458c0.345 0 0.625 0.28 0.625 0.625Zm-7.917 0.625a0.625 0.625 0 1 0 0 -1.25H0.625a0.625 0.625 0 1 0 0 1.25h1.458Z" clip-rule="evenodd" stroke-width="1"></path>
</svg>