<svg xmlns="http://www.w3.org/2000/svg" fill="none" viewBox="0 0 10 10">
  <path fill="#000000" d="M4.64648 0.146484c0.19527 -0.1952618 0.51177 -0.1952618 0.70704 0L6.41895 1.21191h1.86914c0.27614 0 0.5 0.22386 0.5 0.5v1.86914l1.06543 1.06543c0.19528 0.19527 0.19528 0.51177 0 0.70704L8.78809 6.41895v1.86914c0 0.27614 -0.22386 0.5 -0.5 0.5H6.41895L5.35352 9.85352c-0.19527 0.19528 -0.51177 0.19528 -0.70704 0L3.58105 8.78809H1.71191c-0.27614 0 -0.5 -0.22386 -0.5 -0.5V6.41895L0.146484 5.35352c-0.1952618 -0.19527 -0.1952618 -0.51177 0 -0.70704L1.21191 3.58105V1.71191c0 -0.27614 0.22386 -0.5 0.5 -0.5h1.86914zM5 3.01953c-1.09393 0 -1.98044 0.88655 -1.98047 1.98047 0 1.09395 0.88652 1.98047 1.98047 1.98047S6.98047 6.09395 6.98047 5C6.98044 3.90608 6.09393 3.01953 5 3.01953" stroke-width="1"></path>
</svg>