<svg xmlns="http://www.w3.org/2000/svg" fill="none" viewBox="0 0 10 10" id="Ticket--Streamline-Micro">
  <desc>
    Ticket Streamline Icon: https://streamlinehq.com
  </desc>
  <path fill="#000000" d="m9.243 2.748 0.333 0.331a1.45 1.45 0 0 1 0 2.05L5.128 9.575a1.45 1.45 0 0 1 -2.049 0l-0.331 -0.333a0.51 0.51 0 0 1 0 -0.72l0.331 -0.332a0.899 0.899 0 1 0 -1.27 -1.27l-0.332 0.331a0.51 0.51 0 0 1 -0.721 0L0.423 6.92a1.451 1.451 0 0 1 0 -2.05L4.872 0.424a1.451 1.451 0 0 1 2.049 0l0.331 0.333a0.51 0.51 0 0 1 0 0.72l-0.331 0.332A0.899 0.899 0 1 0 8.19 3.08l0.331 -0.331a0.51 0.51 0 0 1 0.721 0Z" stroke-width="1"></path>
</svg>